# xmcd
#
# Track frame offsets:
#  150
#  18066
#  36147
#  57355
#  76143
#  106853
#  123420
#  139491
#  150364
#  171354
#  179892
#  203849
#  224753
#
# Disc length: 3174 seconds
#
# Revision: 0
# Processed by: cddbd v1.5.1PL0 Copyright (c) Steve Scherf et al.
# Submitted via: AltoMP3_Maker 3.0
#
DISCID=b60c640d
DTITLE=Stevie Ray Vaughan - Blue Silk
DYEAR=1900
DGENRE=
TTITLE0=Change It
TTITLE1=Cold Shot
TTITLE2=Couldn't Stand the Weather
TTITLE3=Crossfire
TTITLE4=Little Wing
TTITLE5=Pride and Joy
TTITLE6=Taxman
TTITLE7=The House is Rockin'
TTITLE8=Tightrope
TTITLE9=Scuttle Buttin'
TTITLE10=Superstition - (Live)
TTITLE11=The Sky is Crying
TTITLE12=Pipeline (from "Back to the Beach")
EXTD=
EXTT0=
EXTT1=
EXTT2=
EXTT3=
EXTT4=
EXTT5=
EXTT6=
EXTT7=
EXTT8=
EXTT9=
EXTT10=
EXTT11=
EXTT12=
PLAYORDER=
